 <svg
    className="w-16 h-16"
    width="64"
    height="63"
    viewBox="0 0 64 63"
    fill="none"
    xmlns="http://www.w3.org/2000/svg"
  >
    <path
      d="M0.53633 57.1391C0.538652 58.3029 1.00214 59.4184 1.82527 60.2411C2.6484 61.0638 3.76405 61.5267 4.92784 61.5285C8.85628 59.5708 52.3522 66.1778 51.0156 57.1413C50.8642 47.3828 50.9718 38.5756 50.9718 38.5756C50.9718 38.5756 56.3607 33.2031 62.8975 27.2128C67.5677 21.6735 56.2115 11.4859 51.0156 20.473C49.8645 16.5599 54.2999 -0.31479 46.6263 0.0791509H4.92784C-4.0527 -2.39533 2.3568 53.9481 0.53633 57.1391ZM57.1508 29.853L40.3288 46.6772C39.7238 45.6194 39.03 44.6151 38.2548 43.6749C44.5688 38.7666 50.4593 32.2002 56.2203 26.5566C56.7916 27.5483 57.1433 28.6511 57.2518 29.7904C57.2177 29.808 57.1881 29.8387 57.153 29.853H57.1508ZM31.7038 45.446L32.4719 42.1189C35.2029 43.3962 37.4047 45.5833 38.7003 48.3056L35.3469 49.0858C34.5223 47.537 33.2536 46.2688 31.7038 45.446ZM59.8469 27.1755C59.7183 27.3659 59.5557 27.531 59.3674 27.6627C59.3378 27.5497 59.2961 27.4399 59.261 27.328C60.0228 25.8552 60.7063 24.3432 61.3086 22.7982C62.1195 24.2621 62.0657 25.7994 59.8469 27.1755ZM54.6138 22.0422C54.9375 21.4858 55.3797 20.2865 54.7038 19.8618C55.7572 18.9302 57.0674 18.2696 58.2405 19.4536C59.0732 20.1412 59.8476 20.8966 60.5558 21.7119C59.7728 22.9579 59.0851 24.2612 58.4983 25.6107C58.2962 25.2707 58.0688 24.9465 57.818 24.6407C60.3506 20.3227 58.9921 17.6781 56.9544 23.7441C56.6989 23.5149 56.4276 23.3041 56.1424 23.1132C56.873 22.0336 57.2821 20.7687 57.322 19.4657C57.319 19.3654 57.2838 19.2688 57.2216 19.1901C57.1595 19.1114 57.0737 19.0547 56.9769 19.0285C56.8801 19.0023 56.7774 19.008 56.684 19.0446C56.5907 19.0812 56.5116 19.1469 56.4584 19.2319C55.8238 20.2366 55.3433 21.3307 55.033 22.4778C54.8486 22.3905 54.6604 22.3114 54.4689 22.2408C54.523 22.179 54.5715 22.1126 54.6138 22.0422ZM53.0841 21.5616C53.2529 21.3752 53.4425 21.2088 53.6492 21.0656L53.5889 21.0041C53.7403 20.8307 53.9093 20.6442 54.0893 20.4554C54.0838 20.4554 54.0344 20.8241 54.0552 20.6464C53.9817 21.1095 53.9071 21.5758 53.8446 22.04C53.4812 21.9505 53.11 21.8968 52.7363 21.8798C52.8515 21.7722 52.9667 21.6647 53.0841 21.5616ZM51.1561 23.438C52.3258 23.7233 53.4524 24.1628 54.5062 24.7449C48.9099 30.7473 42.6057 36.0935 37.163 42.2133L37.1224 42.1255L36.8667 42.379C36.025 41.644 35.105 41.0037 34.1234 40.4696L51.1561 23.438ZM2.73428 4.46737C1.23094 -0.554008 45.179 3.53135 46.6274 2.27052C47.2094 2.27197 47.7671 2.50396 48.1785 2.91569C48.5898 3.32743 48.8212 3.88537 48.8221 4.46737V22.6677C47.6984 23.9 31.0805 40.1174 30.4056 41.3179C26.0679 55.7368 28.2878 54.0721 40.7863 49.3229L48.8221 41.2871C47.8784 43.2546 51.0453 59.832 46.6274 59.3338H4.92894C-0.367869 60.9699 4.17288 5.85329 2.73428 4.46737Z"
      fill="#a271f2"
    />
    <path
      d="M9.31723 56.0418C12.1933 55.4855 21.5612 57.9808 21.3878 52.7498C20.8315 49.8738 23.3268 40.5059 18.0959 40.6792C15.2198 41.2356 5.85187 38.7403 6.02525 43.9712C6.58159 46.8473 4.08627 56.2163 9.31723 56.0418ZM8.2199 43.9712C7.90387 41.7711 17.1576 43.3062 18.0959 42.8739C20.296 42.5579 18.7608 51.8116 19.1932 52.7498C19.5092 54.95 10.2554 53.4148 9.31723 53.8472C7.11709 54.1632 8.65225 44.9094 8.2199 43.9712ZM10.352 18.8479C13.4959 18.8193 16.6858 18.8841 19.8022 18.6526C20.5264 18.4188 20.6691 17.7045 20.702 17.0373C20.7722 15.8686 20.8238 14.6956 20.781 13.5258C22.7485 11.0206 25.6641 8.50007 27.3398 6.24177C27.4103 6.1132 27.4419 5.96687 27.4307 5.82065C27.4194 5.67442 27.3659 5.53463 27.2765 5.41836C27.1871 5.30209 27.0658 5.21437 26.9274 5.16592C26.7889 5.11747 26.6394 5.11039 26.497 5.14554C24.1114 6.14191 22.5543 8.54067 20.7251 10.2843C20.5714 8.8161 21.344 6.56438 19.4917 5.93561C17.7924 5.7005 16.0679 5.71418 14.3726 5.97621C12.9395 6.16276 11.1289 6.78385 9.75507 6.07717C9.43904 5.96853 8.95073 5.55923 8.48875 6.16495C7.31241 9.08275 8.1815 12.4351 8.20564 15.5076C8.30879 17.2118 8.018 19.0202 10.352 18.8479ZM13.5156 8.2005C15.2332 7.81017 16.9897 7.61726 18.751 7.6255C19.0516 7.64086 19.0396 7.61453 19.0626 7.89873C19.1175 9.32965 18.9474 10.7628 18.9013 12.1926C18.391 12.7028 17.8797 13.212 17.3453 13.6959C16.1525 12.5328 15.4052 10.7682 13.9633 9.88929C13.8378 9.81941 13.6963 9.78319 13.5526 9.78416C13.4089 9.78513 13.268 9.82326 13.1434 9.89483C13.0188 9.9664 12.9148 10.069 12.8416 10.1926C12.7684 10.3162 12.7284 10.4567 12.7255 10.6004C12.9318 12.5031 14.5043 13.9911 15.5676 15.4879C15.7133 15.7759 15.9299 16.0222 16.197 16.2034C16.4642 16.3847 16.7731 16.4949 17.0946 16.5238C17.4161 16.5527 17.7397 16.4992 18.0349 16.3685C18.33 16.2377 18.587 16.034 18.7817 15.7765C18.7817 16.064 18.7872 16.5929 18.7894 16.8826C16.0076 16.6818 13.2369 16.7597 10.4497 16.7136C10.2236 13.9209 9.85273 11.1315 9.78031 8.32998C11.0214 8.53946 12.292 8.49542 13.5156 8.2005ZM16.9601 14.0405C16.8284 14.1612 16.812 14.1678 16.9228 14.0405H16.9601ZM30.6636 10.1208C33.4541 10.2064 36.2369 10.1889 39.0241 10.0089C40.0231 10.1117 41.0261 9.85615 41.8541 9.28795C42.6025 8.40241 41.2978 7.70451 40.489 7.72645C37.1262 7.7591 33.7767 8.15534 30.499 8.90828C29.8011 9.05971 29.9843 10.1022 30.6636 10.1208ZM28.9144 14.4641C32.9537 15.0753 37.0401 14.6078 41.1057 14.4125C42.3018 14.339 44.209 14.5683 45.0978 13.6411C45.1936 13.5408 45.2658 13.4204 45.309 13.2887C45.3523 13.1569 45.3655 13.0172 45.3477 12.8796C45.3299 12.7421 45.2816 12.6103 45.2063 12.4939C45.131 12.3775 45.0305 12.2794 44.9124 12.2068C44.3079 11.8741 43.6001 11.782 42.9306 11.949C40.9027 12.1414 38.8727 12.3133 36.8404 12.4647C34.1289 12.5548 31.4301 12.8779 28.774 13.4304C28.1496 13.5258 28.3625 14.4191 28.9144 14.4641ZM24.0247 24.0646C23.02 25.0867 22.0684 26.1599 21.1739 27.2798C21.491 21.3794 19.0593 23.4314 14.9169 23.5971C13.1784 23.722 11.4343 23.7513 9.69252 23.6849C9.53807 23.6762 9.38365 23.7024 9.24069 23.7615C9.09772 23.8205 8.96988 23.911 8.86661 24.0262C8.76334 24.1413 8.6873 24.2783 8.64412 24.4268C8.60094 24.5753 8.59171 24.7317 8.61714 24.8843C8.37902 24.7021 7.94667 24.7877 7.99056 25.1575C8.23522 28.062 8.23008 30.9821 7.9752 33.8857C8.10907 35.5536 10.1271 35.3012 11.333 35.3835C12.8605 35.4878 14.3869 35.5832 15.9177 35.6502C21.0202 35.9717 21.39 36.1506 21.198 30.7934C22.9385 28.5768 24.8807 26.5263 26.9996 24.6681C27.7183 24.0404 28.8859 23.438 28.8519 22.3725C28.8482 22.1314 28.7673 21.8979 28.6212 21.7062C28.475 21.5144 28.2713 21.3745 28.0399 21.307C27.0314 21.0766 26.4378 21.7843 25.753 22.4065C25.1619 22.9435 24.5858 23.4969 24.0247 24.0646ZM18.9748 29.8694L18.9737 30.2777C18.041 31.8315 17.466 31.0535 16.5815 30.0505L14.6513 28.139C14.0336 27.5267 13.2193 28.4188 13.7241 29.0662C15.1506 30.5004 16.4488 34.036 18.943 32.9738C18.9196 33.1627 18.9218 33.3539 18.9496 33.5422C15.8957 33.5082 12.8781 33.3677 9.83078 33.3502L9.83737 33.2448C10.0843 30.6599 9.7687 28.0522 8.91232 25.6008C9.01122 25.7096 9.13165 25.7965 9.26596 25.8562C9.40028 25.9159 9.54554 25.947 9.69252 25.9476C12.7969 26.0136 15.901 25.8036 18.9682 25.3199C18.9924 26.8364 18.9759 28.3529 18.9748 29.8694ZM40.0655 23.111C36.7845 22.7906 33.3004 24.1425 30.1061 24.8887C29.3797 25.0928 29.4883 26.3295 30.2905 26.2527C31.8926 26.0968 33.4925 25.9619 35.0891 25.7578C36.6649 25.6041 38.2242 25.3057 39.7911 25.1301C40.0367 25.1247 40.2723 25.0319 40.4556 24.8683C40.6388 24.7047 40.7576 24.4811 40.7907 24.2377C40.8238 23.9943 40.7689 23.7471 40.636 23.5406C40.503 23.334 40.3007 23.1817 40.0655 23.111ZM36.9556 27.2359C34.6194 27.6386 32.281 28.0172 29.9448 28.4166C29.8042 28.4597 29.6835 28.5513 29.6042 28.6752C29.525 28.799 29.4923 28.9471 29.5121 29.0928C29.5319 29.2385 29.6028 29.3724 29.7122 29.4707C29.8216 29.5689 29.9624 29.6251 30.1094 29.6291C31.6599 29.7652 39.6331 30.3621 39.3259 28.0424C39.1832 26.9824 37.715 27.1097 36.9556 27.2359Z"
      fill="#a271f2"
    />
  </svg>