  <svg
    width="49"
    height="48"
    viewBox="0 0 49 48"
    fill="none"
    xmlns="http://www.w3.org/2000/svg"
  >
    <g clipPath="url(#clip0_1027_9)">
      <path
        fillRule="evenodd"
        clipRule="evenodd"
        d="M8.50166 -1.05246C9.19201 -1.05246 9.75166 -0.492816 9.75166 0.19754V3.67564H13.4379V0.19754C13.4379 -0.492816 13.9976 -1.05246 14.6879 -1.05246C15.3783 -1.05246 15.9379 -0.492816 15.9379 0.19754V3.67564H19.6243V0.19754C19.6243 -0.492816 20.1839 -1.05246 20.8743 -1.05246C21.5647 -1.05246 22.1243 -0.492816 22.1243 0.19754V3.67564H25.8106V0.19754C25.8106 -0.492816 26.3702 -1.05246 27.0606 -1.05246C27.7509 -1.05246 28.3106 -0.492816 28.3106 0.19754V3.67564H31.9969V0.19754C31.9969 -0.492816 32.5566 -1.05246 33.2469 -1.05246C33.9373 -1.05246 34.4969 -0.492816 34.4969 0.19754V3.67564H38.1832V0.19754C38.1832 -0.492816 38.7429 -1.05246 39.4332 -1.05246C40.1236 -1.05246 40.6832 -0.492816 40.6832 0.19754V3.67564H43.0312C43.7216 3.67564 44.2812 4.23528 44.2812 4.92564V43.0263C44.2812 43.7166 43.7216 44.2763 43.0312 44.2763H4.96911C4.27876 44.2763 3.71911 43.7166 3.71911 43.0263V4.92564C3.71911 4.23528 4.27876 3.67564 4.96911 3.67564H7.25166V0.19754C7.25166 -0.492816 7.8113 -1.05246 8.50166 -1.05246ZM6.21911 6.17564V41.7763H41.7812V6.17564H6.21911Z"
        fill="#a271f2"
      />
      <path
        fillRule="evenodd"
        clipRule="evenodd"
        d="M10.1326 11.3456C10.1326 10.6552 10.6923 10.0956 11.3826 10.0956H36.6179C37.3083 10.0956 37.8679 10.6552 37.8679 11.3456V30.8124C37.8679 31.5027 37.3083 32.0624 36.6179 32.0624H36.6163C34.1022 32.0624 32.0605 34.0962 32.0467 36.6132C32.043 37.3008 31.4845 37.8563 30.7968 37.8563H11.3826C10.6923 37.8563 10.1326 37.2967 10.1326 36.6063V11.3456ZM12.6326 12.5956V35.3563H29.6625C30.1912 32.466 32.4741 30.1883 35.3679 29.6723V12.5956H12.6326Z"
        fill="#a271f2"
      />
      <path
        fillRule="evenodd"
        clipRule="evenodd"
        d="M27.6698 17.6472C26.7203 17.6472 25.9485 18.418 25.9485 19.3715C25.9485 20.3249 26.7203 21.0957 27.6698 21.0957C28.6192 21.0957 29.391 20.3249 29.391 19.3715C29.391 18.418 28.6192 17.6472 27.6698 17.6472ZM23.4485 19.3715C23.4485 17.0397 25.3372 15.1472 27.6698 15.1472C30.0023 15.1472 31.891 17.0397 31.891 19.3715C31.891 21.7033 30.0023 23.5957 27.6698 23.5957C25.3372 23.5957 23.4485 21.7033 23.4485 19.3715Z"
        fill="#a271f2"
      />
      <path
        fillRule="evenodd"
        clipRule="evenodd"
        d="M19.3332 26.2964C18.3837 26.2964 17.6119 27.0672 17.6119 28.0207C17.6119 28.9741 18.3837 29.7449 19.3332 29.7449C20.2826 29.7449 21.0544 28.9741 21.0544 28.0207C21.0544 27.0672 20.2826 26.2964 19.3332 26.2964ZM15.1119 28.0207C15.1119 25.6889 17.0006 23.7964 19.3332 23.7964C21.6657 23.7964 23.5544 25.6889 23.5544 28.0207C23.5544 30.3525 21.6657 32.2449 19.3332 32.2449C17.0007 32.2449 15.1119 30.3525 15.1119 28.0207Z"
        fill="#a271f2"
      />
      <path
        fillRule="evenodd"
        clipRule="evenodd"
        d="M-1.05225 8.49453C-1.05225 7.80417 -0.492602 7.24453 0.197754 7.24453H4.92111C5.61147 7.24453 6.17111 7.80417 6.17111 8.49453C6.17111 9.18489 5.61147 9.74453 4.92111 9.74453H0.197754C-0.492602 9.74453 -1.05225 9.18489 -1.05225 8.49453ZM41.8293 8.49453C41.8293 7.80417 42.389 7.24453 43.0793 7.24453H47.8027C48.4931 7.24453 49.0527 7.80417 49.0527 8.49453C49.0527 9.18489 48.4931 9.74453 47.8027 9.74453H43.0793C42.389 9.74453 41.8293 9.18489 41.8293 8.49453ZM19.4073 10.0956C20.0977 10.0956 20.6573 10.6552 20.6573 11.3456V18.1215H24.6986C25.389 18.1215 25.9485 18.6811 25.9485 19.3715C25.9485 20.0618 25.389 20.6215 24.6986 20.6215H19.4073C18.717 20.6215 18.1573 20.0618 18.1573 19.3715V11.3456C18.1573 10.6552 18.717 10.0956 19.4073 10.0956ZM-1.05225 14.6871C-1.05225 13.9968 -0.492602 13.4371 0.197754 13.4371H4.92111C5.61147 13.4371 6.17111 13.9968 6.17111 14.6871C6.17111 15.3775 5.61147 15.9371 4.92111 15.9371H0.197754C-0.492602 15.9371 -1.05225 15.3775 -1.05225 14.6871ZM41.8293 14.6871C41.8293 13.9968 42.389 13.4371 43.0793 13.4371H47.8027C48.4931 13.4371 49.0527 13.9968 49.0527 14.6871C49.0527 15.3775 48.4931 15.9371 47.8027 15.9371H43.0793C42.389 15.9371 41.8293 15.3775 41.8293 14.6871ZM-1.05225 20.8797C-1.05225 20.1894 -0.492602 19.6297 0.197754 19.6297H4.92111C5.61147 19.6297 6.17111 20.1894 6.17111 20.8797C6.17111 21.5701 5.61147 22.1297 4.92111 22.1297H0.197754C-0.492602 22.1297 -1.05225 21.5701 -1.05225 20.8797ZM41.8293 20.8797C41.8293 20.1894 42.389 19.6297 43.0793 19.6297H47.8027C48.4931 19.6297 49.0527 20.1894 49.0527 20.8797C49.0527 21.5701 48.4931 22.1297 47.8027 22.1297H43.0793C42.389 22.1297 41.8293 21.5701 41.8293 20.8797ZM-1.05225 27.0722C-1.05225 26.3818 -0.492602 25.8222 0.197754 25.8222H4.92111C5.61147 25.8222 6.17111 26.3818 6.17111 27.0722C6.17111 27.7626 5.61147 28.3222 4.92111 28.3222H0.197754C-0.492602 28.3222 -1.05225 27.7626 -1.05225 27.0722ZM41.8293 27.0722C41.8293 26.3818 42.389 25.8222 43.0793 25.8222H47.8027C48.4931 25.8222 49.0527 26.3818 49.0527 27.0722C49.0527 27.7626 48.4931 28.3222 47.8027 28.3222H43.0793C42.389 28.3222 41.8293 27.7626 41.8293 27.0722ZM19.3332 29.7449C20.0235 29.7449 20.5832 30.3045 20.5832 30.9949V36.6057C20.5832 37.2961 20.0235 37.8557 19.3332 37.8557C18.6428 37.8557 18.0832 37.2961 18.0832 36.6057V30.9949C18.0832 30.3045 18.6428 29.7449 19.3332 29.7449ZM-1.05225 33.2648C-1.05225 32.5744 -0.492602 32.0148 0.197754 32.0148H4.92111C5.61147 32.0148 6.17111 32.5744 6.17111 33.2648C6.17111 33.9552 5.61147 34.5148 4.92111 34.5148H0.197754C-0.492602 34.5148 -1.05225 33.9552 -1.05225 33.2648ZM41.8293 33.2648C41.8293 32.5744 42.389 32.0148 43.0793 32.0148H47.8027C48.4931 32.0148 49.0527 32.5744 49.0527 33.2648C49.0527 33.9552 48.4931 34.5148 47.8027 34.5148H43.0793C42.389 34.5148 41.8293 33.9552 41.8293 33.2648ZM-1.05225 39.4574C-1.05225 38.767 -0.492602 38.2074 0.197754 38.2074H4.92111C5.61147 38.2074 6.17111 38.767 6.17111 39.4574C6.17111 40.1478 5.61147 40.7074 4.92111 40.7074H0.197754C-0.492602 40.7074 -1.05225 40.1478 -1.05225 39.4574ZM41.8293 39.4574C41.8293 38.767 42.389 38.2074 43.0793 38.2074H47.8027C48.4931 38.2074 49.0527 38.767 49.0527 39.4574C49.0527 40.1478 48.4931 40.7074 47.8027 40.7074H43.0793C42.389 40.7074 41.8293 40.1478 41.8293 39.4574ZM8.53445 41.8244C9.2248 41.8244 9.78445 42.384 9.78445 43.0744V47.8025C9.78445 48.4928 9.2248 49.0525 8.53445 49.0525C7.84409 49.0525 7.28445 48.4928 7.28445 47.8025V43.0744C7.28445 42.384 7.84409 41.8244 8.53445 41.8244ZM14.7207 41.8244C15.4111 41.8244 15.9707 42.384 15.9707 43.0744V47.8025C15.9707 48.4928 15.4111 49.0525 14.7207 49.0525C14.0304 49.0525 13.4707 48.4928 13.4707 47.8025V43.0744C13.4707 42.384 14.0304 41.8244 14.7207 41.8244ZM20.9071 41.8244C21.5974 41.8244 22.1571 42.384 22.1571 43.0744V47.8025C22.1571 48.4928 21.5974 49.0525 20.9071 49.0525C20.2167 49.0525 19.6571 48.4928 19.6571 47.8025V43.0744C19.6571 42.384 20.2167 41.8244 20.9071 41.8244ZM27.0934 41.8244C27.7837 41.8244 28.3434 42.384 28.3434 43.0744V47.8025C28.3434 48.4928 27.7837 49.0525 27.0934 49.0525C26.403 49.0525 25.8434 48.4928 25.8434 47.8025V43.0744C25.8434 42.384 26.403 41.8244 27.0934 41.8244ZM33.2797 41.8244C33.9701 41.8244 34.5297 42.384 34.5297 43.0744V47.8025C34.5297 48.4928 33.9701 49.0525 33.2797 49.0525C32.5894 49.0525 32.0297 48.4928 32.0297 47.8025V43.0744C32.0297 42.384 32.5894 41.8244 33.2797 41.8244ZM39.466 41.8244C40.1564 41.8244 40.716 42.384 40.716 43.0744V47.8025C40.716 48.4928 40.1564 49.0525 39.466 49.0525C38.7757 49.0525 38.216 48.4928 38.216 47.8025V43.0744C38.216 42.384 38.7757 41.8244 39.466 41.8244Z"
        fill="#a271f2"
      />
    </g>
    <defs>
      <clipPath id="clip0_1027_9">
        <rect width="48" height="48" fill="white" />
      </clipPath>
    </defs>
  </svg>