<svg width="28" height="24" viewBox="0 0 28 24" fill="none" xmlns="http://www.w3.org/2000/svg">
<g id="contact-icon" clip-path="url(#clip0_1138_373)">
<path id="Vector" d="M4.93102 6.73072C4.93102 6.2747 5.30069 5.90503 5.7567 5.90503H7.92432C8.38033 5.90503 8.75001 6.2747 8.75001 6.73072C8.75001 7.18673 8.38033 7.55641 7.92432 7.55641H5.7567C5.30069 7.55641 4.93102 7.18673 4.93102 6.73072Z" fill="#a271f2"/>
<path id="Vector_2" d="M16.8073 4.1435V1.53345C16.8073 0.70502 16.1357 0.0334473 15.3073 0.0334473H1.5C0.671574 0.0334473 0 0.70502 0 1.53345V15.0655C0 15.894 0.671573 16.5655 1.5 16.5655H3.26304V19.0166C3.26304 19.3956 3.66821 19.6368 4.00137 19.4561L9.33237 16.5655H11.1927V19.1756C11.1927 20.0041 11.8643 20.6756 12.6927 20.6756H18.6676L23.9986 23.5662C24.3318 23.7469 24.737 23.5057 24.737 23.1267V20.6756H26.5C27.3284 20.6756 28 20.0041 28 19.1756V5.6435C28 4.81507 27.3284 4.1435 26.5 4.1435H16.8073ZM26.3594 19.0242H23.5963C23.3202 19.0242 23.0963 19.2481 23.0963 19.5242V21.2012L19.0814 19.0242H12.8334V5.79488H26.3594V19.0242ZM4.90366 17.0911V15.4141C4.90366 15.138 4.67981 14.9141 4.40366 14.9141H1.64062V1.68482H15.1666V4.1435H12.6927C11.8643 4.1435 11.1927 4.81507 11.1927 5.6435V9.42791H5.7567C5.30068 9.42791 4.93101 9.79758 4.93101 10.2536C4.93101 10.7096 5.30068 11.0793 5.7567 11.0793H11.1927V14.9141H8.91855L4.90366 17.0911Z" fill="#a271f2"/>
<path id="Vector_3" d="M18.776 11.8146C18.776 11.3615 19.1433 10.9943 19.5963 10.9943C20.0494 10.9943 20.4167 11.3615 20.4167 11.8146V15.3049C20.4167 15.7579 20.0494 16.1252 19.5963 16.1252C19.1433 16.1252 18.776 15.7579 18.776 15.3049V11.8146Z" fill="#a271f2"/>
<path id="Vector_4" d="M19.5963 9.79493C20.0494 9.79493 20.4167 9.42526 20.4167 8.96924C20.4167 8.51323 20.0494 8.14355 19.5963 8.14355C19.1433 8.14355 18.776 8.51323 18.776 8.96924C18.776 9.42526 19.1433 9.79493 19.5963 9.79493Z" fill="#a271f2"/>
</g>
<defs>
<clipPath id="clip0_1138_373">
<rect width="28" height="24" fill="white"/>
</clipPath>
</defs>
</svg>
