<svg width="24" height="24" viewBox="0 0 24 24" fill="none" xmlns="http://www.w3.org/2000/svg">
<path fill-rule="evenodd" clip-rule="evenodd" d="M23.5 12C23.4986 17.7945 19.1839 22.6817 13.4343 23.4013C7.68464 24.1209 2.29853 20.4478 0.869149 14.8324C-0.560231 9.21697 2.41421 3.4157 7.80816 1.29876C13.2021 -0.818182 19.3284 1.41136 22.1 6.5C23.0206 8.18687 23.5021 10.0783 23.5 12V12Z" stroke="#A271F2" stroke-linecap="round" stroke-linejoin="round"/>
<path d="M17.0169 6.5C16.0829 3.98342 14.3114 1.86484 11.9999 0.5C9.68845 1.86484 7.91697 3.98342 6.98291 6.5" stroke="#A271F2" stroke-linecap="round" stroke-linejoin="round"/>
<path d="M6.98193 17.5C7.91674 20.0164 9.68847 22.1349 11.9999 23.5C14.4207 22.2458 16.2521 20.0912 17.0999 17.5" stroke="#A271F2" stroke-linecap="round" stroke-linejoin="round"/>
<path d="M3.28198 4.5H20.718" stroke="#A271F2" stroke-linecap="round" stroke-linejoin="round"/>
<path d="M3.28198 19.5H20.718" stroke="#A271F2" stroke-linecap="round" stroke-linejoin="round"/>
<path d="M9.5 10V11.345C9.50024 12.1082 9.64584 12.8643 9.929 13.573L10.5 15L11.5 11.5L12.5 15L13.071 13.573C13.3542 12.8643 13.4998 12.1082 13.5 11.345V10" stroke="#A271F2" stroke-linecap="round" stroke-linejoin="round"/>
<path d="M15.5 10V11.345C15.5002 12.1082 15.6458 12.8643 15.929 13.573L16.5 15L17.5 11.5L18.5 15L19.071 13.573C19.3542 12.8643 19.4998 12.1082 19.5 11.345V10" stroke="#A271F2" stroke-linecap="round" stroke-linejoin="round"/>
<path d="M3.5 10V11.345C3.50024 12.1082 3.64584 12.8643 3.929 13.573L4.5 15L5.5 11.5L6.5 15L7.071 13.573C7.35416 12.8643 7.49976 12.1082 7.5 11.345V10" stroke="#A271F2" stroke-linecap="round" stroke-linejoin="round"/>
</svg>
