<svg width="28" height="26" viewBox="0 0 28 26" fill="none" xmlns="http://www.w3.org/2000/svg">
<rect width="28" height="26" fill="transparent"/>
<g id="Menu">
<rect width="360" height="800" transform="translate(-42 -293)" fill="transparent"/>
<g id="Drop-down">
<g id="VPS-option">
<rect id="bg" x="-10" y="-11" width="48" height="48" rx="8" fill="transparent"/>
<g id="vps-icon" clip-path="url(#clip0_1863_392)">
<g id="Group">
<path id="Vector" d="M3.28125 4.10468C3.28125 3.65807 3.6433 3.29602 4.08991 3.29602H4.11322C4.55983 3.29602 4.92188 3.65807 4.92188 4.10468C4.92188 4.55129 4.55983 4.91334 4.11322 4.91334H4.08991C3.6433 4.91334 3.28125 4.55129 3.28125 4.10468ZM6.5625 4.10468C6.5625 3.65807 6.92455 3.29602 7.37116 3.29602H7.39447C7.84108 3.29602 8.20312 3.65807 8.20312 4.10468C8.20312 4.55129 7.84108 4.91334 7.39447 4.91334H7.37116C6.92455 4.91334 6.5625 4.55129 6.5625 4.10468ZM9.84375 4.10468C9.84375 3.65807 10.2058 3.29602 10.6524 3.29602H10.6757C11.1223 3.29602 11.4844 3.65807 11.4844 4.10468C11.4844 4.55129 11.1223 4.91334 10.6757 4.91334H10.6524C10.2058 4.91334 9.84375 4.55129 9.84375 4.10468ZM3.28125 10.574C3.28125 10.1273 3.6433 9.7653 4.08991 9.7653H4.11322C4.55983 9.7653 4.92188 10.1273 4.92188 10.574C4.92188 11.0206 4.55983 11.3826 4.11322 11.3826H4.08991C3.6433 11.3826 3.28125 11.0206 3.28125 10.574ZM6.5625 10.574C6.5625 10.1273 6.92455 9.7653 7.37116 9.7653H7.39447C7.84108 9.7653 8.20312 10.1273 8.20312 10.574C8.20312 11.0206 7.84108 11.3826 7.39447 11.3826H7.37116C6.92455 11.3826 6.5625 11.0206 6.5625 10.574ZM9.84375 10.574C9.84375 10.1273 10.2058 9.7653 10.6524 9.7653H10.6757C11.1223 9.7653 11.4844 10.1273 11.4844 10.574C11.4844 11.0206 11.1223 11.3826 10.6757 11.3826H10.6524C10.2058 11.3826 9.84375 11.0206 9.84375 10.574ZM3.28125 17.0432C3.28125 16.5966 3.6433 16.2346 4.08991 16.2346H4.11322C4.55983 16.2346 4.92188 16.5966 4.92188 17.0432C4.92188 17.4898 4.55983 17.8519 4.11322 17.8519H4.08991C3.6433 17.8519 3.28125 17.4898 3.28125 17.0432ZM6.5625 17.0432C6.5625 16.5966 6.92455 16.2346 7.37116 16.2346H7.39447C7.84108 16.2346 8.20312 16.5966 8.20312 17.0432C8.20312 17.4898 7.84108 17.8519 7.39447 17.8519H7.37116C6.92455 17.8519 6.5625 17.4898 6.5625 17.0432Z" fill="#a271f2"/>
<path id="Vector_2" d="M6.5625 22.7039C6.5625 24.4874 8.03447 25.9385 9.84375 25.9385H23.0234C25.7535 25.9385 28 23.7588 28 21.0865C28 18.4169 25.756 16.2346 23.0234 16.2346H22.7423C22.4629 15.4562 21.9888 14.7747 21.3828 14.2405V1.5614C21.3828 0.732975 20.7112 0.0614014 19.8828 0.0614014H1.5C0.671573 0.0614014 0 0.732974 0 1.5614V19.586C0 20.4144 0.671573 21.086 1.5 21.086H7.00394C6.71436 21.5774 6.56204 22.1356 6.5625 22.7039ZM23.0234 17.8519C24.8629 17.8519 26.3594 19.303 26.3594 21.0865C26.3594 22.8701 24.8629 24.3212 23.0234 24.3212H9.84375C8.93911 24.3212 8.20312 23.5957 8.20312 22.7039C8.20312 21.8106 8.93911 21.0865 9.84375 21.0865H11.4844V20.2779C11.4844 18.9402 12.5884 17.8519 13.9453 17.8519H14.6985L14.8319 17.2042C15.1406 15.7052 16.5157 14.6173 18.1016 14.6173C19.6557 14.6173 21.0078 15.7052 21.3165 17.2042L21.4499 17.8519H23.0234ZM1.64062 1.67872H19.7422V6.53068H1.64062V1.67872ZM1.64062 8.148H19.7422V13H1.64062V8.148ZM1.64062 14.6167H14.3927C13.9559 15.0907 13.612 15.6506 13.3937 16.271C11.6631 16.5014 10.2713 17.8 9.92616 19.4692H1.64062V14.6167Z" fill="#a271f2"/>
</g>
</g>
</g>
</g>
</g>
<defs>
<clipPath id="clip0_1863_392">
<rect width="28" height="26" fill="white"/>
</clipPath>
</defs>
</svg>
