<svg width="28" height="24" viewBox="0 0 28 24" fill="none" xmlns="http://www.w3.org/2000/svg">
<g id="about-icon" clip-path="url(#clip0_1138_407)">
<path id="Vector" d="M3.28316 3.98481C3.28316 3.54494 3.63974 3.18835 4.07962 3.18835H4.12869C4.56856 3.18835 4.92515 3.54494 4.92515 3.98481C4.92515 4.42469 4.56856 4.78127 4.12869 4.78127H4.07962C3.63974 4.78127 3.28316 4.42469 3.28316 3.98481ZM6.5672 3.98481C6.5672 3.54494 6.92378 3.18835 7.36366 3.18835H7.41262C7.85249 3.18835 8.20908 3.54494 8.20908 3.98481C8.20908 4.42469 7.85249 4.78127 7.41262 4.78127H7.36366C6.92378 4.78127 6.5672 4.42469 6.5672 3.98481ZM9.85102 3.98481C9.85102 3.54494 10.2076 3.18835 10.6475 3.18835H10.6964C11.1363 3.18835 11.4929 3.54494 11.4929 3.98481C11.4929 4.42469 11.1363 4.78127 10.6964 4.78127H10.6475C10.2076 4.78127 9.85102 4.42469 9.85102 3.98481Z" fill="#a271f2"/>
<path id="Vector_2" d="M1.5 0C0.671572 0 0 0.671573 0 1.5V22.4975C0 23.3259 0.671573 23.9975 1.5 23.9975H26.5C27.3284 23.9975 28 23.3259 28 22.4975V1.5C28 0.671573 27.3284 0 26.5 0H1.5ZM26.3594 1.59292V6.37688H1.64062V1.59292H26.3594ZM1.64062 22.4046V7.96981H26.3594V22.4046H1.64062Z" fill="#a271f2"/>
<path id="Vector_3" d="M10.9456 15.187C10.9456 14.7471 11.3022 14.3906 11.7421 14.3906H23.9204C24.3602 14.3906 24.7168 14.7471 24.7168 15.187C24.7168 15.6269 24.3602 15.9835 23.9204 15.9835H11.7421C11.3022 15.9835 10.9456 15.6269 10.9456 15.187ZM10.9456 11.9987C10.9456 11.5589 11.3022 11.2023 11.7421 11.2023H23.9204C24.3602 11.2023 24.7168 11.5589 24.7168 11.9987C24.7168 12.4386 24.3602 12.7952 23.9204 12.7952H11.7421C11.3022 12.7952 10.9456 12.4386 10.9456 11.9987ZM10.9456 18.3753C10.9456 17.9355 11.3022 17.5789 11.7421 17.5789H23.9204C24.3602 17.5789 24.7168 17.9355 24.7168 18.3753C24.7168 18.8152 24.3602 19.1718 23.9204 19.1718H11.7421C11.3022 19.1718 10.9456 18.8152 10.9456 18.3753ZM7.11364 15.3906C7.11364 14.8383 6.66592 14.3906 6.11364 14.3906H4.62693C4.18706 14.3906 3.83047 14.7471 3.83047 15.187C3.83047 15.6269 4.18706 15.9835 4.62693 15.9835H5.47301V17.5789H4.62694C4.18706 17.5789 3.83047 17.9355 3.83047 18.3753C3.83047 18.8152 4.18706 19.1718 4.62694 19.1718H7.95994C8.39981 19.1718 8.7564 18.8152 8.7564 18.3753C8.7564 17.9355 8.39981 17.5789 7.95994 17.5789H7.11364V15.3906ZM5.47236 11.9987C5.47236 11.5589 5.82895 11.2023 6.26882 11.2023H6.31784C6.75771 11.2023 7.1143 11.5589 7.1143 11.9987C7.1143 12.4386 6.75771 12.7952 6.31784 12.7952H6.26882C5.82895 12.7952 5.47236 12.4386 5.47236 11.9987Z" fill="#a271f2"/>
</g>
<defs>
<clipPath id="clip0_1138_407">
<rect width="28" height="24" fill="white"/>
</clipPath>
</defs>
</svg>
