<svg width="28" height="28" viewBox="0 0 28 28" fill="none" xmlns="http://www.w3.org/2000/svg">
<g id="server-icon" clip-path="url(#clip0_2372_430)">
<g id="Group">
<path id="Vector" d="M25.5117 23.0234C24.4169 23.0234 23.4857 23.7345 23.1538 24.7188H16.3853C16.1375 23.9837 15.5553 23.4016 14.8203 23.1538V21.3828H23.8438C24.2968 21.3828 24.6641 21.0155 24.6641 20.5625V0.820312C24.6641 0.367281 24.2968 0 23.8438 0H4.15625C3.70322 0 3.33594 0.367281 3.33594 0.820312V20.5625C3.33594 21.0155 3.70322 21.3828 4.15625 21.3828H13.1797V23.1723C12.4704 23.4301 11.9111 24.002 11.6694 24.7188H4.84624C4.51434 23.7345 3.58307 23.0234 2.48828 23.0234C1.11623 23.0234 0 24.1397 0 25.5117C0 26.8838 1.11623 28 2.48828 28C3.56278 28 4.48027 27.3153 4.8277 26.3594H11.6879C12.4815 28.5429 15.5741 28.5404 16.3668 26.3594H23.1723C23.5197 27.3153 24.4372 28 25.5117 28C26.8838 28 28 26.8838 28 25.5117C28 24.1397 26.8838 23.0234 25.5117 23.0234ZM4.97656 8.25781H23.0234V13.1797H4.97656V8.25781ZM23.0234 1.64062V6.61719H4.97656V1.64062H23.0234ZM4.97656 14.8203H23.0234V19.7422H4.97656V14.8203ZM2.48828 26.3594C2.02087 26.3594 1.64062 25.9791 1.64062 25.5117C1.64062 25.0443 2.02087 24.6641 2.48828 24.6641C2.9557 24.6641 3.33594 25.0443 3.33594 25.5117C3.33594 25.9791 2.9557 26.3594 2.48828 26.3594ZM14.0273 26.3594C13.5599 26.3594 13.1797 25.9791 13.1797 25.5117C13.1797 25.0443 13.5599 24.6641 14.0273 24.6641C14.4948 24.6641 14.875 25.0443 14.875 25.5117C14.875 25.9791 14.4948 26.3594 14.0273 26.3594ZM25.5117 26.3594C25.0443 26.3594 24.6641 25.9791 24.6641 25.5117C24.6641 25.0443 25.0443 24.6641 25.5117 24.6641C25.9791 24.6641 26.3594 25.0443 26.3594 25.5117C26.3594 25.9791 25.9791 26.3594 25.5117 26.3594Z" fill="#a271f2"/>
<path id="Vector_2" d="M7.4375 4.97656C7.89055 4.97656 8.25781 4.6093 8.25781 4.15625C8.25781 3.7032 7.89055 3.33594 7.4375 3.33594C6.98445 3.33594 6.61719 3.7032 6.61719 4.15625C6.61719 4.6093 6.98445 4.97656 7.4375 4.97656Z" fill="#a271f2"/>
<path id="Vector_3" d="M7.4375 11.5391C7.89055 11.5391 8.25781 11.1718 8.25781 10.7188C8.25781 10.2657 7.89055 9.89844 7.4375 9.89844C6.98445 9.89844 6.61719 10.2657 6.61719 10.7188C6.61719 11.1718 6.98445 11.5391 7.4375 11.5391Z" fill="#a271f2"/>
<path id="Vector_4" d="M7.4375 18.1016C7.89055 18.1016 8.25781 17.7343 8.25781 17.2812C8.25781 16.8282 7.89055 16.4609 7.4375 16.4609C6.98445 16.4609 6.61719 16.8282 6.61719 17.2812C6.61719 17.7343 6.98445 18.1016 7.4375 18.1016Z" fill="#a271f2"/>
<path id="Vector_5" d="M10.7188 4.97656H20.5625C21.0155 4.97656 21.3828 4.60928 21.3828 4.15625C21.3828 3.70322 21.0155 3.33594 20.5625 3.33594H10.7188C10.2657 3.33594 9.89844 3.70322 9.89844 4.15625C9.89844 4.60928 10.2657 4.97656 10.7188 4.97656ZM20.5625 9.89844H10.7188C10.2657 9.89844 9.89844 10.2657 9.89844 10.7188C9.89844 11.1718 10.2657 11.5391 10.7188 11.5391H20.5625C21.0155 11.5391 21.3828 11.1718 21.3828 10.7188C21.3828 10.2657 21.0155 9.89844 20.5625 9.89844ZM21.3828 17.2812C21.3828 16.8282 21.0155 16.4609 20.5625 16.4609H10.7188C10.2657 16.4609 9.89844 16.8282 9.89844 17.2812C9.89844 17.7343 10.2657 18.1016 10.7188 18.1016H20.5625C21.0155 18.1016 21.3828 17.7343 21.3828 17.2812Z" fill="#a271f2"/>
</g>
</g>
<defs>
<clipPath id="clip0_2372_430">
<rect width="28" height="28" fill="white"/>
</clipPath>
</defs>
</svg>
