<svg
    width="28"
    height="28"
    viewBox="0 0 28 28"
    fill="none"
    xmlns="http://www.w3.org/2000/svg"
  >
    <g clipPath="url(#clip0_1138_482)">
      <path
        d="M27.1797 19.7422C27.6327 19.7422 28 19.3749 28 18.9219V2.51562C28 2.06259 27.6327 1.69531 27.1797 1.69531H20.2891V0.820312C20.2891 0.367281 19.9218 0 19.4688 0H8.53125C8.07822 0 7.71094 0.367281 7.71094 0.820312V1.69531H0.820312C0.367281 1.69531 0 2.06259 0 2.51562V18.9219C0 19.3749 0.367281 19.7422 0.820312 19.7422H4.97656V23.1538C4.24151 23.4016 3.65941 23.9837 3.41157 24.7188H0.820312C0.367281 24.7188 0 25.086 0 25.5391C0 25.9921 0.367281 26.3594 0.820312 26.3594H3.43011C3.77754 27.3153 4.69503 28 5.76953 28C6.84403 28 7.76152 27.3153 8.10895 26.3594H11.6879C12.0354 27.3153 12.9528 28 14.0273 28C15.1018 28 16.0193 27.3153 16.3668 26.3594H19.891C20.2385 27.3153 21.156 28 22.2305 28C23.305 28 24.2225 27.3153 24.5699 26.3594H27.1797C27.6327 26.3594 28 25.9921 28 25.5391C28 25.086 27.6327 24.7188 27.1797 24.7188H24.5884C24.3406 23.9837 23.7584 23.4016 23.0234 23.1538V19.7422H27.1797ZM26.3594 3.33594V18.1016H20.2891V16.4609H23.8438C24.2968 16.4609 24.6641 16.0937 24.6641 15.6406C24.6641 15.1876 24.2968 14.8203 23.8438 14.8203H20.2891V13.1797H23.8438C24.2968 13.1797 24.6641 12.8124 24.6641 12.3594C24.6641 11.9063 24.2968 11.5391 23.8438 11.5391H20.2891V9.89844H23.8438C24.2968 9.89844 24.6641 9.53116 24.6641 9.07812C24.6641 8.62509 24.2968 8.25781 23.8438 8.25781H20.2891V6.61719H23.8438C24.2968 6.61719 24.6641 6.24991 24.6641 5.79688C24.6641 5.34384 24.2968 4.97656 23.8438 4.97656H20.2891V3.33594H26.3594ZM9.35156 1.64062H18.6484V19.6875H9.35156V1.64062ZM1.64062 3.33594H7.71094V4.97656H4.15625C3.70322 4.97656 3.33594 5.34384 3.33594 5.79688C3.33594 6.24991 3.70322 6.61719 4.15625 6.61719H7.71094V8.25781H4.15625C3.70322 8.25781 3.33594 8.62509 3.33594 9.07812C3.33594 9.53116 3.70322 9.89844 4.15625 9.89844H7.71094V11.5391H4.15625C3.70322 11.5391 3.33594 11.9063 3.33594 12.3594C3.33594 12.8124 3.70322 13.1797 4.15625 13.1797H7.71094V14.8203H4.15625C3.70322 14.8203 3.33594 15.1876 3.33594 15.6406C3.33594 16.0937 3.70322 16.4609 4.15625 16.4609H7.71094V18.1016H1.64062V3.33594ZM7.71094 19.7422V20.5078C7.71094 20.9608 8.07822 21.3281 8.53125 21.3281H13.1797V23.1723C12.4704 23.4301 11.9111 24.002 11.6694 24.7188H8.12749C7.88577 24.002 7.32648 23.4301 6.61719 23.1723V19.7422H7.71094ZM5.76953 26.3594C5.30212 26.3594 4.92188 25.9791 4.92188 25.5117C4.92188 25.0443 5.30212 24.6641 5.76953 24.6641C6.23695 24.6641 6.61719 25.0443 6.61719 25.5117C6.61719 25.9791 6.23695 26.3594 5.76953 26.3594ZM14.0273 26.3594C13.5599 26.3594 13.1797 25.9791 13.1797 25.5117C13.1797 25.0443 13.5599 24.6641 14.0273 24.6641C14.4948 24.6641 14.875 25.0443 14.875 25.5117C14.875 25.9791 14.4948 26.3594 14.0273 26.3594ZM22.2305 26.3594C21.7631 26.3594 21.3828 25.9791 21.3828 25.5117C21.3828 25.0443 21.7631 24.6641 22.2305 24.6641C22.6979 24.6641 23.0781 25.0443 23.0781 25.5117C23.0781 25.9791 22.6979 26.3594 22.2305 26.3594ZM21.3828 23.1723C20.6735 23.4301 20.1142 24.002 19.8725 24.7188H16.3853C16.1375 23.9837 15.5553 23.4016 14.8203 23.1538V21.3281H19.4688C19.9218 21.3281 20.2891 20.9608 20.2891 20.5078V19.7422H21.3828V23.1723Z"
        fill="#a271f2"
      />
      <path
        d="M11.8125 4.97656H16.2422C16.6952 4.97656 17.0625 4.60928 17.0625 4.15625C17.0625 3.70322 16.6952 3.33594 16.2422 3.33594H11.8125C11.3595 3.33594 10.9922 3.70322 10.9922 4.15625C10.9922 4.60928 11.3595 4.97656 11.8125 4.97656ZM11.8125 8.25781H16.2422C16.6952 8.25781 17.0625 7.89053 17.0625 7.4375C17.0625 6.98447 16.6952 6.61719 16.2422 6.61719H11.8125C11.3595 6.61719 10.9922 6.98447 10.9922 7.4375C10.9922 7.89053 11.3595 8.25781 11.8125 8.25781ZM11.8125 11.5391H16.1875C16.6405 11.5391 17.0078 11.1718 17.0078 10.7188C17.0078 10.2657 16.6405 9.89844 16.1875 9.89844H11.8125C11.3595 9.89844 10.9922 10.2657 10.9922 10.7188C10.9922 11.1718 11.3595 11.5391 11.8125 11.5391ZM11.8125 14.8203H16.1875C16.6405 14.8203 17.0078 14.453 17.0078 14C17.0078 13.547 16.6405 13.1797 16.1875 13.1797H11.8125C11.3595 13.1797 10.9922 13.547 10.9922 14C10.9922 14.453 11.3595 14.8203 11.8125 14.8203Z"
        fill= "#a271f2"
      />
      <path
        d="M14 18.1016C14.453 18.1016 14.8203 17.7343 14.8203 17.2812C14.8203 16.8282 14.453 16.4609 14 16.4609C13.547 16.4609 13.1797 16.8282 13.1797 17.2812C13.1797 17.7343 13.547 18.1016 14 18.1016Z"
        fill= "#a271f2"
      />
    </g>
    <defs>
      <clipPath id="clip0_1138_482">
        <rect width="28" height="28" fill="white" />
      </clipPath>
    </defs>
  </svg>