<svg width="24" height="24" viewBox="0 0 24 24" fill="none" xmlns="http://www.w3.org/2000/svg">
<path d="M0.5 4.5H20.5" stroke="#A271F2" stroke-linecap="round" stroke-linejoin="round"/>
<path d="M3.5 2.25C3.36193 2.25 3.25 2.36193 3.25 2.5C3.25 2.63807 3.36193 2.75 3.5 2.75C3.63807 2.75 3.75 2.63807 3.75 2.5C3.75 2.36193 3.63807 2.25 3.5 2.25V2.25" stroke="#A271F2" stroke-linecap="round" stroke-linejoin="round"/>
<path d="M5.5 2.25C5.36193 2.25 5.25 2.36193 5.25 2.5C5.25 2.63807 5.36193 2.75 5.5 2.75C5.63807 2.75 5.75 2.63807 5.75 2.5C5.75 2.36193 5.63807 2.25 5.5 2.25V2.25" stroke="#A271F2" stroke-linecap="round" stroke-linejoin="round"/>
<path d="M7.5 2.25C7.36193 2.25 7.25 2.36193 7.25 2.5C7.25 2.63807 7.36193 2.75 7.5 2.75C7.63807 2.75 7.75 2.63807 7.75 2.5C7.75 2.36193 7.63807 2.25 7.5 2.25V2.25" stroke="#A271F2" stroke-linecap="round" stroke-linejoin="round"/>
<path d="M7.5 16.5H2.5C1.39543 16.5 0.5 15.6046 0.5 14.5V2.5C0.5 1.39543 1.39543 0.5 2.5 0.5H18.5C19.6046 0.5 20.5 1.39543 20.5 2.5V8.5" stroke="#A271F2" stroke-linecap="round" stroke-linejoin="round"/>
<path d="M16.5 23.5C14.5 22 13.5 19 13.5 16.5C13.5 14 14.5 11 16.5 9.5" stroke="#A271F2" stroke-linecap="round" stroke-linejoin="round"/>
<path d="M16.5 23.5C18.5 22 19.5 19 19.5 16.5C19.5 14 18.5 11 16.5 9.5" stroke="#A271F2" stroke-linecap="round" stroke-linejoin="round"/>
<path d="M10.1741 13.5H22.8261" stroke="#A271F2" stroke-linecap="round" stroke-linejoin="round"/>
<path d="M10.1741 19.5H22.8261" stroke="#A271F2" stroke-linecap="round" stroke-linejoin="round"/>
<path d="M9.5 16.5H23.5" stroke="#A271F2" stroke-linecap="round" stroke-linejoin="round"/>
<path fill-rule="evenodd" clip-rule="evenodd" d="M16.5 23.5C20.366 23.5 23.5 20.366 23.5 16.5C23.5 12.634 20.366 9.5 16.5 9.5C12.634 9.5 9.5 12.634 9.5 16.5C9.5 20.366 12.634 23.5 16.5 23.5Z" stroke="#A271F2" stroke-linecap="round" stroke-linejoin="round"/>
</svg>
