<svg width="28" height="24" viewBox="0 0 28 24" fill="none" xmlns="http://www.w3.org/2000/svg">
<g id="blog-icon" clip-path="url(#clip0_1138_401)">
<path id="Vector" d="M26.5 0C27.3284 0 28 0.671573 28 1.5V22.5C28 23.3284 27.3284 24 26.5 24C18.1667 23.9998 9.83339 23.9998 1.5001 24C0.671667 24 7.62939e-05 23.3284 7.62939e-05 22.5V1.5C7.62939e-05 0.671573 0.671649 0 1.50008 0H26.5ZM14.5242 12.2045C14.5242 11.7676 14.8784 11.4134 15.3153 11.4134H22.9113C23.3483 11.4134 23.7024 11.7676 23.7024 12.2045C23.7024 12.6414 23.3483 12.9956 22.9113 12.9956H15.3153C14.8784 12.9956 14.5242 12.6414 14.5242 12.2045ZM14.5242 16.026C14.5242 15.5891 14.8784 15.2349 15.3153 15.2349H22.9113C23.3483 15.2349 23.7024 15.5891 23.7024 16.026C23.7024 16.4629 23.3483 16.8171 22.9113 16.8171H15.3153C14.8784 16.8171 14.5242 16.4629 14.5242 16.026ZM4.36767 19.8475C4.36767 19.4106 4.72187 19.0564 5.15879 19.0564H22.9113C23.3483 19.0564 23.7024 19.4106 23.7024 19.8475C23.7024 20.2844 23.3483 20.6386 22.9113 20.6386H5.15879C4.72187 20.6386 4.36767 20.2844 4.36767 19.8475ZM14.5242 8.38302C14.5242 7.94609 14.8784 7.5919 15.3153 7.5919H22.9113C23.3483 7.5919 23.7024 7.94609 23.7024 8.38302C23.7024 8.81995 23.3483 9.17414 22.9113 9.17414H15.3153C14.8784 9.17414 14.5242 8.81995 14.5242 8.38302ZM10.3517 7.5919C11.1801 7.5919 11.8517 8.26347 11.8517 9.0919V15.3171C11.8517 16.1456 11.1801 16.8171 10.3517 16.8171H5.84591C5.01748 16.8171 4.34591 16.1456 4.34591 15.3171V9.0919C4.34591 8.26347 5.01748 7.5919 5.84591 7.5919H10.3517ZM10.3018 9.17414H5.8956V15.235H10.3018V9.17414ZM9.51083 2.90646C9.51083 3.37063 9.14227 3.74689 8.6876 3.74689C8.23294 3.74689 7.86438 3.37063 7.86438 2.90646C7.86438 2.4423 8.23294 2.06604 8.6876 2.06604C9.14227 2.06604 9.51083 2.4423 9.51083 2.90646ZM6.83702 2.90646C6.83702 3.37063 6.46846 3.74689 6.0138 3.74689C5.55913 3.74689 5.19058 3.37063 5.19058 2.90646C5.19058 2.4423 5.55913 2.06604 6.0138 2.06604C6.46846 2.06604 6.83702 2.4423 6.83702 2.90646ZM4.16306 2.90646C4.16306 3.37063 3.7945 3.74689 3.33983 3.74689C2.88517 3.74689 2.51661 3.37063 2.51661 2.90646C2.51661 2.4423 2.88517 2.06604 3.33983 2.06604C3.79434 2.06604 4.16306 2.4423 4.16306 2.90646ZM1.54993 4.23051H26.4501V1.58225H1.54993V4.23051ZM26.4501 5.81276H1.54993V22.4178H26.4501V5.81276Z" fill="#a271f2"/>
</g>
<defs>
<clipPath id="clip0_1138_401">
<rect width="28" height="24" fill="white"/>
</clipPath>
</defs>
</svg>
