<svg width="28" height="28" viewBox="0 0 28 28" fill="none" xmlns="http://www.w3.org/2000/svg">
<g id="career-icon" clip-path="url(#clip0_1138_382)">
<path id="Vector (Stroke)" fill-rule="evenodd" clip-rule="evenodd" d="M-0.000762939 1.5C-0.000762939 0.671573 0.670809 0 1.49924 0H21.5555C22.3839 0 23.0555 0.671573 23.0555 1.5V22.5586H7.81955V24.3587L7.81581 24.3978L6.99924 24.3195C7.81581 24.3978 7.81581 24.3978 7.81581 24.3978L7.81565 24.3994L7.81545 24.4014L7.81497 24.4061C7.81461 24.4096 7.81416 24.4139 7.81361 24.4188C7.81252 24.4286 7.81104 24.4411 7.80909 24.4562C7.8052 24.4865 7.79945 24.5271 7.79121 24.5768C7.77478 24.6757 7.74826 24.8117 7.7065 24.9725C7.6238 25.2911 7.47701 25.7243 7.21826 26.165C6.68245 27.0775 5.66774 28 3.91432 28C2.14655 28 1.13148 27.0359 0.600075 26.1032C0.342315 25.6507 0.195569 25.2062 0.112699 24.8796C0.0708538 24.7146 0.0441925 24.5754 0.0276638 24.4743C0.0193807 24.4236 0.0135871 24.3821 0.00967997 24.3514C0.00772503 24.3361 0.00623822 24.3234 0.00514539 24.3135C0.00459881 24.3086 0.00415039 24.3044 0.00379095 24.3009L0.00331713 24.2963L0.00312796 24.2943C0.00312796 24.2943 0.0029695 24.2927 0.81955 24.2145L0.00296952 24.2927L-0.000762939 24.2537V1.5ZM1.63986 24.1642C1.64156 24.1763 1.64384 24.1915 1.64681 24.2096C1.65678 24.2707 1.67425 24.363 1.70294 24.4761C1.76113 24.7054 1.86102 25.0022 2.02559 25.291C2.33883 25.8409 2.87114 26.3594 3.91432 26.3594C4.97183 26.3594 5.49958 25.8518 5.8035 25.3342C5.96461 25.0599 6.062 24.778 6.11851 24.5603C6.14636 24.453 6.1632 24.3655 6.17273 24.3081C6.17533 24.2925 6.17737 24.2792 6.17893 24.2684V20.918H21.4149V1.64062H1.63986V24.1642Z" fill="#a271f2"/>
<path id="Vector (Stroke)_2" fill-rule="evenodd" clip-rule="evenodd" d="M6.17914 20.918H28V24.2216C28 26.3082 26.3082 28 24.2216 28H3.91454V26.3594C4.97205 26.3594 5.4998 25.8518 5.80372 25.3342C5.96483 25.0599 6.06222 24.778 6.11873 24.5603C6.14658 24.453 6.16342 24.3655 6.17295 24.3081C6.17555 24.2925 6.17759 24.2792 6.17914 24.2684V20.918ZM6.99946 24.3195C7.81603 24.3978 7.81595 24.3986 7.81595 24.3986L7.81567 24.4014L7.81519 24.4061C7.81483 24.4096 7.81438 24.4139 7.81383 24.4188C7.81274 24.4286 7.81126 24.4411 7.80931 24.4562C7.80542 24.4865 7.79967 24.5272 7.79143 24.5768C7.775 24.6757 7.74848 24.8117 7.70672 24.9725C7.62402 25.2911 7.47723 25.7243 7.21848 26.165C7.18039 26.2298 7.13989 26.2947 7.09687 26.3594H24.2216C25.4021 26.3594 26.3594 25.4021 26.3594 24.2216V22.5586H7.81977V24.3587L7.81595 24.3986L6.99946 24.3195Z" fill="#a271f2"/>
<path id="Vector (Stroke)_3" fill-rule="evenodd" clip-rule="evenodd" d="M18.9798 7.00769C18.9798 7.46074 18.6126 7.828 18.1595 7.828H10.1254C9.67235 7.828 9.30508 7.46074 9.30508 7.00769C9.30508 6.55464 9.67235 6.18738 10.1254 6.18738H18.1595C18.6126 6.18738 18.9798 6.55464 18.9798 7.00769Z" fill="#a271f2"/>
<path id="Vector (Stroke)_4" fill-rule="evenodd" clip-rule="evenodd" d="M18.9798 11.6249C18.9798 12.0779 18.6126 12.4452 18.1595 12.4452H10.1254C9.67235 12.4452 9.30508 12.0779 9.30508 11.6249C9.30508 11.1718 9.67235 10.8046 10.1254 10.8046H18.1595C18.6126 10.8046 18.9798 11.1718 18.9798 11.6249Z" fill="#a271f2"/>
<path id="Vector (Stroke)_5" fill-rule="evenodd" clip-rule="evenodd" d="M18.9798 16.2422C18.9798 16.6952 18.6126 17.0625 18.1595 17.0625H10.1254C9.67235 17.0625 9.30508 16.6952 9.30508 16.2422C9.30508 15.7891 9.67235 15.4219 10.1254 15.4219H18.1595C18.6126 15.4219 18.9798 15.7891 18.9798 16.2422Z" fill="#a271f2"/>
<path id="Vector (Stroke)_6" fill-rule="evenodd" clip-rule="evenodd" d="M7.80937 5.81371C7.98851 6.02385 7.96338 6.33944 7.75323 6.51858L5.66375 8.29981C5.45233 8.48003 5.13454 8.45336 4.95612 8.24042L3.93937 7.02691C3.76202 6.81524 3.78985 6.49988 4.00151 6.32253L4.49256 5.91111C4.70423 5.73376 5.01958 5.76158 5.19693 5.97325L5.47487 6.30497L6.68889 5.27005C6.89904 5.0909 7.21462 5.11604 7.39377 5.32618L7.80937 5.81371Z" fill="#a271f2"/>
<path id="Vector (Stroke)_7" fill-rule="evenodd" clip-rule="evenodd" d="M7.80937 10.9204C7.98851 11.1305 7.96338 11.4461 7.75323 11.6253L5.66375 13.4065C5.45233 13.5867 5.13454 13.56 4.95612 13.3471L3.93937 12.1336C3.76202 11.9219 3.78985 11.6066 4.00151 11.4292L4.49256 11.0178C4.70423 10.8404 5.01958 10.8683 5.19693 11.0799L5.47487 11.4117L6.68889 10.3767C6.89904 10.1976 7.21462 10.2227 7.39377 10.4329L7.80937 10.9204Z" fill="#a271f2"/>
<path id="Vector (Stroke)_8" fill-rule="evenodd" clip-rule="evenodd" d="M7.80937 16.0277C7.98851 16.2378 7.96338 16.5534 7.75323 16.7326L5.66375 18.5138C5.45233 18.694 5.13454 18.6673 4.95612 18.4544L3.93937 17.2409C3.76202 17.0292 3.78985 16.7139 4.00151 16.5365L4.49256 16.1251C4.70423 15.9477 5.01958 15.9756 5.19693 16.1872L5.47487 16.519L6.68889 15.484C6.89904 15.3049 7.21462 15.33 7.39377 15.5402L7.80937 16.0277Z" fill="#a271f2"/>
</g>
<defs>
<clipPath id="clip0_1138_382">
<rect width="28" height="28" fill="white"/>
</clipPath>
</defs>
</svg>
