<svg width="28" height="24" viewBox="0 0 28 24" fill="none" xmlns="http://www.w3.org/2000/svg">
<g clip-path="url(#clip0_1138_395)">
<path d="M19.4868 5.37501V1.5C19.4868 0.671573 18.8152 0 17.9868 0H10.0127C9.18423 0 8.51266 0.671573 8.51266 1.5V5.37501H1.5C0.671574 5.37501 0 6.04659 0 6.87501V22.5C0 23.3284 0.671573 24 1.5 24H26.5C27.3284 24 28 23.3284 28 22.5V6.87501C28 6.04659 27.3284 5.37501 26.5 5.37501H19.4868ZM10.1538 1.67969H17.8467V5.37501H10.1538V1.67969ZM26.3594 22.3203H1.64062V15.4157H11.7212V16.499C11.7212 17.3274 12.3927 17.999 13.2212 17.999H14.7783C15.6067 17.999 16.2783 17.3274 16.2783 16.499V15.4157H26.3588L26.3594 22.3203ZM13.3618 16.3193V12.624H14.6377V16.3193H13.3618ZM26.3594 13.736H16.2788V12.4443C16.2788 11.6159 15.6073 10.9443 14.7788 10.9443H13.2217C12.3933 10.9443 11.7217 11.6159 11.7217 12.4443V13.736H1.64062V7.05471H26.3594V13.736Z" fill="#a271f2"/>
</g>
<defs>
<clipPath id="clip0_1138_395">
<rect width="28" height="24" fill="white"/>
</clipPath>
</defs>
</svg>
