<svg width="131" height="40" viewBox="0 0 131 40" fill="none" xmlns="http://www.w3.org/2000/svg">
<g clip-path="url(#clip0_2391_1204)">
<path d="M10.2789 31.0504C6.96305 31.0504 4.4557 30.4233 2.77754 29.1474C1.09937 27.8723 0.16676 25.9901 0.00128174 23.4809H2.46727C3.66878 23.4809 4.85051 24.1298 5.34694 25.2378C6.00976 26.7434 7.64745 27.4957 10.2375 27.4957C11.7709 27.4957 12.9517 27.1826 13.7809 26.5546C14.6092 25.9275 15.0031 25.1326 15.0031 24.1706C15.0031 23.5435 14.7963 23.0417 14.3817 22.6442C13.9671 22.2467 13.4284 21.9127 12.7449 21.6614C12.0614 21.3891 11.2943 21.1595 10.4246 20.9499C9.55404 20.7412 8.68439 20.5106 7.77246 20.281C6.88121 20.0514 5.99087 19.7592 5.12031 19.4244C4.24975 19.0895 3.48352 18.6711 2.80002 18.1493C2.11652 17.6266 1.57782 16.9995 1.16323 16.2254C0.748631 15.4722 0.541784 14.532 0.541784 13.424C0.541784 12.3994 0.748631 11.4583 1.16323 10.6225C1.57782 9.76491 2.17858 9.03346 2.9664 8.42725C3.75332 7.82103 4.70662 7.34006 5.82629 6.98432C6.94507 6.64945 8.23022 6.4616 9.65927 6.4616C12.8087 6.4616 15.1713 7.02606 16.7667 8.155C18.3622 9.28393 19.1904 10.9565 19.2741 13.1735H16.4358C15.3791 13.1735 14.4671 12.5464 13.9077 11.6053C13.2656 10.5181 11.9184 9.97363 9.86701 9.97363C9.26536 9.97363 8.70597 10.0362 8.16727 10.1624C7.62856 10.2876 7.1726 10.4755 6.80027 10.706C6.40636 10.9356 6.11678 11.2496 5.88834 11.6053C5.66081 11.9602 5.55649 12.3585 5.55649 12.8177C5.55649 13.2152 5.61854 13.5501 5.72197 13.8423C5.82629 14.1345 6.09519 14.4068 6.4882 14.6364C6.88211 14.8878 7.48287 15.1382 8.27069 15.3687C9.05851 15.6201 10.1152 15.8915 11.4409 16.2263C12.9329 16.6238 14.2387 17.0213 15.3161 17.4179C16.3935 17.8154 17.2847 18.2755 17.9682 18.7973C18.6526 19.3409 19.1707 19.9689 19.4809 20.7212C19.8128 21.4526 19.9567 22.3937 19.9567 23.4809C19.9567 24.5681 19.7507 25.5727 19.3361 26.492C18.9215 27.4113 18.3208 28.2063 17.4916 28.876C16.684 29.5448 15.6686 30.0676 14.4662 30.4442C13.2647 30.8199 11.8554 31.0086 10.2393 31.0086L10.2807 31.0504H10.2789ZM116.68 26.3668L130.233 11.2705V7.23479H107.957V7.77838C108.62 8.34285 109.159 9.05342 109.511 9.95276C109.676 10.3502 109.801 10.8312 109.905 11.3539H123.622L110.07 26.4503V30.4859H131V29.4822C131 27.7471 129.611 26.3459 127.892 26.3459H116.661L116.68 26.3668ZM107.606 10.9565C107.171 9.86927 106.508 9.03255 105.617 8.42634C104.684 7.79925 103.649 7.33915 102.447 7.0669C101.266 6.79556 99.8979 6.66941 98.3447 6.66941C91.7967 6.66941 88.3774 9.07429 88.0662 13.8832H90.5529C91.6923 13.8832 92.8327 13.2978 93.3291 12.2524C93.5576 11.7923 93.8885 11.3948 94.3031 11.1026C95.1728 10.4954 96.4166 10.1824 98.0534 10.1824C99.7522 10.1824 100.974 10.4954 101.721 11.1652C102.301 11.6253 102.695 12.2524 102.881 13.0682C102.964 13.3813 103.005 13.7997 103.027 14.3433C103.047 14.866 103.068 15.4931 103.068 16.1828H101.099C96.4588 16.1828 92.9775 16.8516 90.677 18.1902C88.854 19.2574 87.7766 20.7402 87.3827 22.6433C88.0455 23.166 88.6049 23.8149 89.0411 24.5672C89.2273 24.8803 89.3927 25.1943 89.4962 25.5291C89.7866 26.3032 89.9521 27.1182 89.9521 27.9966C89.9521 28.4985 89.8901 29.0003 89.7866 29.4604C90.471 29.9414 91.2373 30.318 92.1069 30.5894C93.0809 30.8825 94.0963 31.0286 95.1944 31.0286C98.4059 31.0286 101.037 30.1084 103.109 28.2471V30.485H105.14C106.86 30.485 108.248 29.0838 108.248 27.3487V15.4096C108.248 13.5065 108.021 12.0219 107.585 10.9347L107.606 10.9565ZM103.089 24.3594C102.758 24.8195 102.364 25.2369 101.929 25.6135C101.473 25.9901 100.996 26.3041 100.457 26.5546C99.9186 26.806 99.3592 27.0147 98.7584 27.1617C98.1577 27.3078 97.5569 27.3705 96.9355 27.3705C95.5883 27.3705 94.5118 27.0773 93.7239 26.5129C92.9163 25.9484 92.5215 25.0908 92.5215 23.9828C92.5215 22.4563 93.205 21.3274 94.5522 20.595C95.8994 19.8636 97.9301 19.5079 100.602 19.5079H103.089V24.3793V24.3594ZM76.7103 27.9975C76.7103 27.6209 76.7516 27.2443 76.8137 26.8895C76.7516 26.8895 76.6896 26.8895 76.6275 26.8895C76.275 26.8895 75.9647 26.8477 75.6949 26.7425C75.4251 26.6381 75.1769 26.4711 74.9898 26.1989C74.8037 25.9266 74.658 25.5718 74.5546 25.0899C74.4502 24.6089 74.4089 23.9818 74.4089 23.2295V10.9347H75.0717C76.7912 10.9347 78.1798 9.53349 78.1798 7.79835V7.00337H74.408V3.1356C74.408 1.40045 73.0194 -0.000732422 71.2999 -0.000732422H69.2071V7.00428C67.5703 7.00428 66.2438 8.34285 66.2438 9.9945V10.9356H69.2071V23.8784C69.2071 25.0491 69.2898 26.0528 69.4562 26.9312C69.6217 27.8088 69.9329 28.5203 70.4095 29.1056C70.8655 29.6701 71.5076 30.1093 72.3368 30.4024C73.1444 30.6946 74.2011 30.8417 75.4863 30.8417C76.087 30.8417 76.6464 30.8208 77.1438 30.779C77.1851 30.779 77.2481 30.7582 77.2895 30.7582C77.2274 30.5912 77.1653 30.4233 77.124 30.2563C76.8749 29.5666 76.7507 28.8134 76.7507 28.0402L76.7103 27.9975ZM60.0716 7.02606H61.087C63.2427 7.02606 64.7554 9.20044 63.9882 11.2496L56.9024 30.5068C56.4464 31.741 56.0111 32.8282 55.6172 33.7484C55.2233 34.6686 54.8303 35.4209 54.4571 36.0271C54.1468 36.529 53.7943 37.0308 53.4003 37.5118C53.0064 37.9928 52.5712 38.4111 52.0738 38.7868C51.5765 39.1626 51.0378 39.4557 50.4163 39.6644C49.8156 39.8949 49.1312 39.9993 48.3856 39.9993C47.7426 39.9993 47.2246 39.9575 46.8316 39.8949C46.0851 39.7697 45.5464 39.1208 45.5464 38.3685V35.1069C45.9197 35.253 46.2929 35.3583 46.6652 35.4C47.0384 35.4627 47.4117 35.4835 47.7633 35.4835C48.2606 35.4835 48.6959 35.3783 49.1105 35.1695C49.5044 34.9608 49.8767 34.6468 50.2086 34.2285C50.5405 33.8101 50.8507 33.2874 51.1619 32.6603C51.4515 32.0332 51.7627 31.3226 52.0316 30.4859L43.3287 7.02606H46.5411C47.8883 7.02606 49.0691 7.90362 49.4837 9.17957L52.1359 17.3553C52.5298 18.6094 52.9228 19.8645 53.2753 21.0978C53.6486 22.3311 54.0416 23.5653 54.4562 24.7986L60.0501 7.02606H60.0716ZM38.189 28.2489C36.0962 30.1102 33.444 31.0504 30.1902 31.0504C29.0922 31.0504 28.0561 30.9043 27.0821 30.6112C26.1081 30.318 25.2376 29.8788 24.5127 29.3143C23.787 28.7499 23.1862 28.0393 22.7716 27.1817C22.3363 26.345 22.1295 25.3622 22.1295 24.2332C22.1295 21.4944 23.2896 19.4461 25.6315 18.0867C27.9518 16.7273 31.4754 16.0584 36.1376 16.0584H38.1269C38.1269 15.347 38.1062 14.7407 38.0855 14.1971C38.0648 13.6536 38.0028 13.2352 37.9398 12.9221C37.7537 12.1072 37.3598 11.4792 36.7797 10.9982C36.0332 10.3493 34.811 10.0154 33.0915 10.0154C31.434 10.0154 30.1696 10.3285 29.2999 10.9347C28.8646 11.2487 28.5337 11.6253 28.3052 12.1063C27.8079 13.1517 26.6684 13.7579 25.5074 13.7579H23C23.2896 8.90732 26.7503 6.48065 33.3604 6.48065C34.9145 6.48065 36.303 6.62767 37.5046 6.87814C38.707 7.14948 39.7637 7.60959 40.6954 8.23758C41.6073 8.84379 42.2701 9.70138 42.7054 10.7886C43.1407 11.8758 43.3682 13.3813 43.3682 15.3052V27.3696C43.3682 29.1047 41.9797 30.5059 40.2601 30.5059H38.1872V28.248L38.189 28.2489ZM38.1476 19.4253H35.6402C32.9467 19.4253 30.8953 19.8019 29.5274 20.5333C28.1595 21.2657 27.476 22.4155 27.476 23.9628C27.476 25.0917 27.87 25.9493 28.6776 26.5138C29.4861 27.0782 30.5635 27.3714 31.9314 27.3714C32.5528 27.3714 33.1536 27.3088 33.7759 27.1626C34.3767 27.0165 34.9567 26.8078 35.4954 26.5564C36.0341 26.2851 36.5315 25.9711 36.9874 25.5945C37.4434 25.2179 37.8373 24.7995 38.1683 24.3394V19.4262L38.1476 19.4253Z" fill="#334155"/>
<path d="M83.2174 32.4942C85.6825 32.4942 87.6718 30.4868 87.6718 27.9985C87.6718 25.5101 85.6834 23.5027 83.2174 23.5027C80.7514 23.5027 78.7621 25.5101 78.7621 27.9985C78.7621 30.4868 80.7514 32.4942 83.2174 32.4942Z" fill="#7D3BE2"/>
</g>
<defs>
<clipPath id="clip0_2391_1204">
<rect width="131" height="40" fill="white"/>
</clipPath>
</defs>
</svg>
